# xmcd
#
# Track frame offsets:
#	150
#	22569
#	36492
#	60618
#	86828
#	107013
#	134086
#	163199
#	185045
#	200402
#
# Disc length: 2956 seconds
# Revision: 0
# Processed by: cddbd v1.5.2PL0 Copyright (c) Steve Scherf et al.
# Submitted via: dBpowerAMP V12.0
#
DISCID=8c0b8a0a
DTITLE=Billy Griffin - Be With Me
DYEAR=1982
DGENRE=R&B
TTITLE0=Be With Me
TTITLE1=Stone's Throw From Heaven
TTITLE2=Hold Me Tighter In The Rain
TTITLE3=Love Is Not A Word
TTITLE4=The Beat Is Getting Stronger
TTITLE5=2nd Day Love Story
TTITLE6=Breaking Out
TTITLE7=Understand
TTITLE8=Date With The Rain
TTITLE9=Technicolour
EXTD=
EXTT0=
EXTT1=
EXTT2=
EXTT3=
EXTT4=
EXTT5=
EXTT6=
EXTT7=
EXTT8=
EXTT9=
PLAYORDER=
